<mxfile host="65bd71144e">
    <diagram id="brkD3zOw1yC258tYgJ67" name="Страница 1">
        <mxGraphModel dx="600" dy="169" grid="1" gridSize="10" guides="1" tooltips="1" connect="1" arrows="1" fold="1" page="1" pageScale="1" pageWidth="827" pageHeight="1169" math="0" shadow="0">
            <root>
                <mxCell id="-nQuxv0eMMz6ziFJ-pR9-0"/>
                <mxCell id="-nQuxv0eMMz6ziFJ-pR9-1" parent="-nQuxv0eMMz6ziFJ-pR9-0"/>
            </root>
        </mxGraphModel>
    </diagram>
</mxfile>